<mxfile host="Electron" agent="Mozilla/5.0 (Windows NT 10.0; Win64; x64) AppleWebKit/537.36 (KHTML, like Gecko) draw.io/24.7.17 Chrome/128.0.6613.36 Electron/32.0.1 Safari/537.36" version="24.7.17">
  <diagram id="C5RBs43oDa-KdzZeNtuy" name="Page-1">
    <mxGraphModel dx="2517" dy="505" grid="1" gridSize="10" guides="1" tooltips="1" connect="1" arrows="1" fold="1" page="1" pageScale="1" pageWidth="827" pageHeight="1169" math="0" shadow="0">
      <root>
        <mxCell id="WIyWlLk6GJQsqaUBKTNV-0" />
        <mxCell id="WIyWlLk6GJQsqaUBKTNV-1" parent="WIyWlLk6GJQsqaUBKTNV-0" />
        <mxCell id="3YDELjohuUV3Qsy84WO7-4" value="Основные компоненты программиного кода" style="swimlane;fontStyle=0;childLayout=stackLayout;horizontal=1;startSize=30;horizontalStack=0;resizeParent=1;resizeParentMax=0;resizeLast=0;collapsible=1;marginBottom=0;whiteSpace=wrap;html=1;" parent="WIyWlLk6GJQsqaUBKTNV-1" vertex="1">
          <mxGeometry x="330" y="200" width="190" height="140" as="geometry" />
        </mxCell>
        <mxCell id="3YDELjohuUV3Qsy84WO7-8" value="1) Разбиение числа в вид ax + b&amp;nbsp;" style="text;strokeColor=none;fillColor=none;align=left;verticalAlign=middle;spacingLeft=4;spacingRight=4;overflow=hidden;points=[[0,0.5],[1,0.5]];portConstraint=eastwest;rotatable=0;whiteSpace=wrap;html=1;" parent="3YDELjohuUV3Qsy84WO7-4" vertex="1">
          <mxGeometry y="30" width="190" height="30" as="geometry" />
        </mxCell>
        <mxCell id="3YDELjohuUV3Qsy84WO7-10" value="2) Функция умножения методом Карацубы&lt;div&gt;&lt;br&gt;&lt;/div&gt;" style="text;strokeColor=none;fillColor=none;align=left;verticalAlign=middle;spacingLeft=4;spacingRight=4;overflow=hidden;points=[[0,0.5],[1,0.5]];portConstraint=eastwest;rotatable=0;whiteSpace=wrap;html=1;" parent="3YDELjohuUV3Qsy84WO7-4" vertex="1">
          <mxGeometry y="60" width="190" height="40" as="geometry" />
        </mxCell>
        <mxCell id="-JtKE8k-AaRXHGvMn-dL-9" value="3) Ускоренное сложение&amp;nbsp;&lt;div&gt;&lt;br&gt;&lt;/div&gt;" style="text;strokeColor=none;fillColor=none;align=left;verticalAlign=middle;spacingLeft=4;spacingRight=4;overflow=hidden;points=[[0,0.5],[1,0.5]];portConstraint=eastwest;rotatable=0;whiteSpace=wrap;html=1;" parent="3YDELjohuUV3Qsy84WO7-4" vertex="1">
          <mxGeometry y="100" width="190" height="40" as="geometry" />
        </mxCell>
        <mxCell id="3YDELjohuUV3Qsy84WO7-11" value="&lt;span style=&quot;font-weight: 400; text-align: left;&quot;&gt;3) Разбиение числа в вид ax + b: split()&amp;nbsp;&lt;/span&gt;" style="swimlane;whiteSpace=wrap;html=1;startSize=23;" parent="WIyWlLk6GJQsqaUBKTNV-1" vertex="1">
          <mxGeometry x="620" y="210" width="925" height="860" as="geometry" />
        </mxCell>
        <mxCell id="3YDELjohuUV3Qsy84WO7-14" value="На вход: число num; суб-строка A для числа a, в который запишется число a; и такая же суб-строка B для числа b, адресс числа X; и коэффицент выравнивания" style="text;html=1;align=center;verticalAlign=middle;resizable=0;points=[];autosize=1;strokeColor=none;fillColor=none;" parent="3YDELjohuUV3Qsy84WO7-11" vertex="1">
          <mxGeometry x="-5" y="30" width="930" height="30" as="geometry" />
        </mxCell>
        <mxCell id="3YDELjohuUV3Qsy84WO7-30" style="edgeStyle=orthogonalEdgeStyle;rounded=0;orthogonalLoop=1;jettySize=auto;html=1;exitX=0.5;exitY=1;exitDx=0;exitDy=0;entryX=0.5;entryY=0;entryDx=0;entryDy=0;" parent="3YDELjohuUV3Qsy84WO7-11" source="3YDELjohuUV3Qsy84WO7-22" target="3YDELjohuUV3Qsy84WO7-29" edge="1">
          <mxGeometry relative="1" as="geometry" />
        </mxCell>
        <mxCell id="3YDELjohuUV3Qsy84WO7-31" value="нет" style="edgeLabel;html=1;align=center;verticalAlign=middle;resizable=0;points=[];" parent="3YDELjohuUV3Qsy84WO7-30" vertex="1" connectable="0">
          <mxGeometry x="0.1781" relative="1" as="geometry">
            <mxPoint as="offset" />
          </mxGeometry>
        </mxCell>
        <mxCell id="3YDELjohuUV3Qsy84WO7-22" value="len чётна?" style="rhombus;whiteSpace=wrap;html=1;" parent="3YDELjohuUV3Qsy84WO7-11" vertex="1">
          <mxGeometry x="330" y="60" width="160" height="80" as="geometry" />
        </mxCell>
        <mxCell id="3YDELjohuUV3Qsy84WO7-26" style="edgeStyle=orthogonalEdgeStyle;rounded=0;orthogonalLoop=1;jettySize=auto;html=1;exitX=0.5;exitY=1;exitDx=0;exitDy=0;entryX=0.5;entryY=0;entryDx=0;entryDy=0;" parent="3YDELjohuUV3Qsy84WO7-11" source="3YDELjohuUV3Qsy84WO7-17" target="3YDELjohuUV3Qsy84WO7-18" edge="1">
          <mxGeometry relative="1" as="geometry" />
        </mxCell>
        <mxCell id="3YDELjohuUV3Qsy84WO7-17" value="a = num / x" style="whiteSpace=wrap;html=1;" parent="3YDELjohuUV3Qsy84WO7-11" vertex="1">
          <mxGeometry x="190" y="275" width="120" height="60" as="geometry" />
        </mxCell>
        <mxCell id="3YDELjohuUV3Qsy84WO7-28" value="" style="edgeStyle=orthogonalEdgeStyle;rounded=0;orthogonalLoop=1;jettySize=auto;html=1;" parent="3YDELjohuUV3Qsy84WO7-11" source="3YDELjohuUV3Qsy84WO7-18" target="3YDELjohuUV3Qsy84WO7-27" edge="1">
          <mxGeometry relative="1" as="geometry" />
        </mxCell>
        <mxCell id="3YDELjohuUV3Qsy84WO7-18" value="b = num - a" style="whiteSpace=wrap;html=1;" parent="3YDELjohuUV3Qsy84WO7-11" vertex="1">
          <mxGeometry x="190" y="355" width="120" height="60" as="geometry" />
        </mxCell>
        <mxCell id="3YDELjohuUV3Qsy84WO7-25" style="edgeStyle=orthogonalEdgeStyle;rounded=0;orthogonalLoop=1;jettySize=auto;html=1;exitX=0.5;exitY=1;exitDx=0;exitDy=0;entryX=0.5;entryY=0;entryDx=0;entryDy=0;" parent="3YDELjohuUV3Qsy84WO7-11" source="3YDELjohuUV3Qsy84WO7-16" target="3YDELjohuUV3Qsy84WO7-17" edge="1">
          <mxGeometry relative="1" as="geometry" />
        </mxCell>
        <mxCell id="3YDELjohuUV3Qsy84WO7-16" value="x = 10^(len/2)" style="whiteSpace=wrap;html=1;" parent="3YDELjohuUV3Qsy84WO7-11" vertex="1">
          <mxGeometry x="190" y="195" width="120" height="55" as="geometry" />
        </mxCell>
        <mxCell id="3YDELjohuUV3Qsy84WO7-20" style="edgeStyle=orthogonalEdgeStyle;rounded=0;orthogonalLoop=1;jettySize=auto;html=1;entryX=0.5;entryY=0;entryDx=0;entryDy=0;exitX=0.5;exitY=1;exitDx=0;exitDy=0;" parent="3YDELjohuUV3Qsy84WO7-11" source="3YDELjohuUV3Qsy84WO7-22" target="3YDELjohuUV3Qsy84WO7-16" edge="1">
          <mxGeometry relative="1" as="geometry">
            <mxPoint x="410" y="175" as="sourcePoint" />
          </mxGeometry>
        </mxCell>
        <mxCell id="3YDELjohuUV3Qsy84WO7-21" value="да" style="edgeLabel;html=1;align=center;verticalAlign=middle;resizable=0;points=[];" parent="3YDELjohuUV3Qsy84WO7-20" vertex="1" connectable="0">
          <mxGeometry x="0.4585" y="-3" relative="1" as="geometry">
            <mxPoint as="offset" />
          </mxGeometry>
        </mxCell>
        <mxCell id="O2EtwMMW7DlvZkUXe5M9-38" style="edgeStyle=orthogonalEdgeStyle;rounded=0;orthogonalLoop=1;jettySize=auto;html=1;exitX=0.5;exitY=1;exitDx=0;exitDy=0;entryX=0.5;entryY=0;entryDx=0;entryDy=0;" parent="3YDELjohuUV3Qsy84WO7-11" source="3YDELjohuUV3Qsy84WO7-27" target="O2EtwMMW7DlvZkUXe5M9-37" edge="1">
          <mxGeometry relative="1" as="geometry" />
        </mxCell>
        <mxCell id="3YDELjohuUV3Qsy84WO7-27" value="внести в строку соответствущий a и внести в строку b, и внести x" style="whiteSpace=wrap;html=1;" parent="3YDELjohuUV3Qsy84WO7-11" vertex="1">
          <mxGeometry x="180" y="495" width="140" height="95" as="geometry" />
        </mxCell>
        <mxCell id="3YDELjohuUV3Qsy84WO7-33" value="" style="edgeStyle=orthogonalEdgeStyle;rounded=0;orthogonalLoop=1;jettySize=auto;html=1;" parent="3YDELjohuUV3Qsy84WO7-11" source="3YDELjohuUV3Qsy84WO7-29" target="3YDELjohuUV3Qsy84WO7-32" edge="1">
          <mxGeometry relative="1" as="geometry" />
        </mxCell>
        <mxCell id="3YDELjohuUV3Qsy84WO7-29" value="x = 10^(len/2 + 1)" style="whiteSpace=wrap;html=1;" parent="3YDELjohuUV3Qsy84WO7-11" vertex="1">
          <mxGeometry x="520" y="195" width="120" height="60" as="geometry" />
        </mxCell>
        <mxCell id="3YDELjohuUV3Qsy84WO7-35" style="edgeStyle=orthogonalEdgeStyle;rounded=0;orthogonalLoop=1;jettySize=auto;html=1;exitX=0.5;exitY=1;exitDx=0;exitDy=0;entryX=0.5;entryY=0;entryDx=0;entryDy=0;" parent="3YDELjohuUV3Qsy84WO7-11" source="3YDELjohuUV3Qsy84WO7-32" target="3YDELjohuUV3Qsy84WO7-34" edge="1">
          <mxGeometry relative="1" as="geometry" />
        </mxCell>
        <mxCell id="3YDELjohuUV3Qsy84WO7-32" value="a = num / x" style="whiteSpace=wrap;html=1;" parent="3YDELjohuUV3Qsy84WO7-11" vertex="1">
          <mxGeometry x="520" y="280" width="120" height="60" as="geometry" />
        </mxCell>
        <mxCell id="3YDELjohuUV3Qsy84WO7-34" value="b = num - a" style="whiteSpace=wrap;html=1;" parent="3YDELjohuUV3Qsy84WO7-11" vertex="1">
          <mxGeometry x="520" y="365" width="120" height="60" as="geometry" />
        </mxCell>
        <mxCell id="-JtKE8k-AaRXHGvMn-dL-0" value="" style="edgeStyle=orthogonalEdgeStyle;rounded=0;orthogonalLoop=1;jettySize=auto;html=1;exitX=0.5;exitY=1;exitDx=0;exitDy=0;" parent="3YDELjohuUV3Qsy84WO7-11" source="3YDELjohuUV3Qsy84WO7-34" target="-JtKE8k-AaRXHGvMn-dL-1" edge="1">
          <mxGeometry relative="1" as="geometry">
            <mxPoint x="610" y="440" as="sourcePoint" />
          </mxGeometry>
        </mxCell>
        <mxCell id="O2EtwMMW7DlvZkUXe5M9-39" style="edgeStyle=orthogonalEdgeStyle;rounded=0;orthogonalLoop=1;jettySize=auto;html=1;exitX=0.5;exitY=1;exitDx=0;exitDy=0;" parent="3YDELjohuUV3Qsy84WO7-11" source="-JtKE8k-AaRXHGvMn-dL-1" edge="1">
          <mxGeometry relative="1" as="geometry">
            <mxPoint x="430" y="630" as="targetPoint" />
          </mxGeometry>
        </mxCell>
        <mxCell id="-JtKE8k-AaRXHGvMn-dL-1" value="внести в строку соответствущий a с добавленным нулём в начале и внести в строку b, и внести x" style="whiteSpace=wrap;html=1;" parent="3YDELjohuUV3Qsy84WO7-11" vertex="1">
          <mxGeometry x="515" y="505" width="130" height="85" as="geometry" />
        </mxCell>
        <mxCell id="O2EtwMMW7DlvZkUXe5M9-37" value="c = -1?" style="rhombus;whiteSpace=wrap;html=1;" parent="3YDELjohuUV3Qsy84WO7-11" vertex="1">
          <mxGeometry x="360" y="630" width="140" height="80" as="geometry" />
        </mxCell>
        <mxCell id="T8CD1AzCU58Y4URFZ3Q1-1" value="пока длина строки А не станет равной c, прибавлять в начале к строке A &quot;0&quot;" style="whiteSpace=wrap;html=1;" vertex="1" parent="3YDELjohuUV3Qsy84WO7-11">
          <mxGeometry x="490" y="750" width="120" height="60" as="geometry" />
        </mxCell>
        <mxCell id="T8CD1AzCU58Y4URFZ3Q1-2" style="edgeStyle=orthogonalEdgeStyle;rounded=0;orthogonalLoop=1;jettySize=auto;html=1;exitX=0.5;exitY=1;exitDx=0;exitDy=0;entryX=0.5;entryY=0;entryDx=0;entryDy=0;" edge="1" parent="3YDELjohuUV3Qsy84WO7-11" source="O2EtwMMW7DlvZkUXe5M9-37" target="T8CD1AzCU58Y4URFZ3Q1-1">
          <mxGeometry relative="1" as="geometry" />
        </mxCell>
        <mxCell id="T8CD1AzCU58Y4URFZ3Q1-3" value="нет" style="edgeLabel;html=1;align=center;verticalAlign=middle;resizable=0;points=[];" vertex="1" connectable="0" parent="T8CD1AzCU58Y4URFZ3Q1-2">
          <mxGeometry x="0.03" relative="1" as="geometry">
            <mxPoint as="offset" />
          </mxGeometry>
        </mxCell>
        <mxCell id="-JtKE8k-AaRXHGvMn-dL-3" value="Функция умножения mult()&amp;nbsp;" style="swimlane;whiteSpace=wrap;html=1;" parent="WIyWlLk6GJQsqaUBKTNV-1" vertex="1">
          <mxGeometry x="-1190" y="480" width="1390" height="1250" as="geometry" />
        </mxCell>
        <mxCell id="-JtKE8k-AaRXHGvMn-dL-4" value="На вход две строки num1 и num2" style="text;html=1;align=center;verticalAlign=middle;whiteSpace=wrap;rounded=0;" parent="-JtKE8k-AaRXHGvMn-dL-3" vertex="1">
          <mxGeometry x="215" y="30" width="230" height="30" as="geometry" />
        </mxCell>
        <mxCell id="-JtKE8k-AaRXHGvMn-dL-6" value="Разбиваем num1 и num2 на a, b, c, d, x:&lt;br&gt;split(num1, A, B, X, -1);&lt;div&gt;split(num2, C, D, X, -1);&lt;br&gt;&lt;div&gt;&lt;br&gt;&lt;/div&gt;&lt;/div&gt;" style="rounded=0;whiteSpace=wrap;html=1;" parent="-JtKE8k-AaRXHGvMn-dL-3" vertex="1">
          <mxGeometry x="305" y="397.5" width="160" height="80" as="geometry" />
        </mxCell>
        <mxCell id="-JtKE8k-AaRXHGvMn-dL-11" style="edgeStyle=orthogonalEdgeStyle;rounded=0;orthogonalLoop=1;jettySize=auto;html=1;exitX=0.5;exitY=1;exitDx=0;exitDy=0;entryX=0.5;entryY=0;entryDx=0;entryDy=0;" parent="-JtKE8k-AaRXHGvMn-dL-3" source="-JtKE8k-AaRXHGvMn-dL-8" target="-JtKE8k-AaRXHGvMn-dL-13" edge="1">
          <mxGeometry relative="1" as="geometry">
            <mxPoint x="745" y="502.5" as="targetPoint" />
          </mxGeometry>
        </mxCell>
        <mxCell id="-JtKE8k-AaRXHGvMn-dL-8" value="AC = mult(a,c)&lt;div&gt;BD = mult(b, d)&lt;/div&gt;&lt;div&gt;ABCD = mult(plus(a,b),plus(c,d))&lt;/div&gt;" style="whiteSpace=wrap;html=1;" parent="-JtKE8k-AaRXHGvMn-dL-3" vertex="1">
          <mxGeometry x="300" y="511.5" width="170" height="80" as="geometry" />
        </mxCell>
        <mxCell id="-JtKE8k-AaRXHGvMn-dL-10" style="edgeStyle=orthogonalEdgeStyle;rounded=0;orthogonalLoop=1;jettySize=auto;html=1;exitX=0.5;exitY=1;exitDx=0;exitDy=0;entryX=0.499;entryY=-0.048;entryDx=0;entryDy=0;entryPerimeter=0;" parent="-JtKE8k-AaRXHGvMn-dL-3" source="-JtKE8k-AaRXHGvMn-dL-6" target="-JtKE8k-AaRXHGvMn-dL-8" edge="1">
          <mxGeometry relative="1" as="geometry" />
        </mxCell>
        <mxCell id="-JtKE8k-AaRXHGvMn-dL-13" value="return AC*x^2 + (ABCD-AC-BD)*x + BD" style="whiteSpace=wrap;html=1;" parent="-JtKE8k-AaRXHGvMn-dL-3" vertex="1">
          <mxGeometry x="325" y="627.5" width="120" height="60" as="geometry" />
        </mxCell>
        <mxCell id="O2EtwMMW7DlvZkUXe5M9-3" style="edgeStyle=orthogonalEdgeStyle;rounded=0;orthogonalLoop=1;jettySize=auto;html=1;exitX=0.5;exitY=1;exitDx=0;exitDy=0;" parent="-JtKE8k-AaRXHGvMn-dL-3" source="O2EtwMMW7DlvZkUXe5M9-7" edge="1">
          <mxGeometry relative="1" as="geometry">
            <mxPoint x="380" y="392.5" as="targetPoint" />
            <mxPoint x="440" y="342.5" as="sourcePoint" />
          </mxGeometry>
        </mxCell>
        <mxCell id="O2EtwMMW7DlvZkUXe5M9-9" value="да" style="edgeLabel;html=1;align=center;verticalAlign=middle;resizable=0;points=[];" parent="O2EtwMMW7DlvZkUXe5M9-3" vertex="1" connectable="0">
          <mxGeometry x="-0.1609" y="1" relative="1" as="geometry">
            <mxPoint as="offset" />
          </mxGeometry>
        </mxCell>
        <mxCell id="-JtKE8k-AaRXHGvMn-dL-16" style="edgeStyle=orthogonalEdgeStyle;rounded=0;orthogonalLoop=1;jettySize=auto;html=1;exitX=0.5;exitY=1;exitDx=0;exitDy=0;entryX=0.5;entryY=0;entryDx=0;entryDy=0;" parent="-JtKE8k-AaRXHGvMn-dL-3" source="O2EtwMMW7DlvZkUXe5M9-5" target="-JtKE8k-AaRXHGvMn-dL-15" edge="1">
          <mxGeometry relative="1" as="geometry">
            <mxPoint x="330" y="242.5" as="sourcePoint" />
          </mxGeometry>
        </mxCell>
        <mxCell id="-JtKE8k-AaRXHGvMn-dL-17" value="да" style="edgeLabel;html=1;align=center;verticalAlign=middle;resizable=0;points=[];" parent="-JtKE8k-AaRXHGvMn-dL-16" vertex="1" connectable="0">
          <mxGeometry x="0.0484" y="-4" relative="1" as="geometry">
            <mxPoint as="offset" />
          </mxGeometry>
        </mxCell>
        <mxCell id="-JtKE8k-AaRXHGvMn-dL-15" value="return num1*num2" style="whiteSpace=wrap;html=1;" parent="-JtKE8k-AaRXHGvMn-dL-3" vertex="1">
          <mxGeometry x="120" y="282.5" width="120" height="60" as="geometry" />
        </mxCell>
        <mxCell id="O2EtwMMW7DlvZkUXe5M9-1" style="edgeStyle=orthogonalEdgeStyle;rounded=0;orthogonalLoop=1;jettySize=auto;html=1;entryX=0.5;entryY=0;entryDx=0;entryDy=0;" parent="-JtKE8k-AaRXHGvMn-dL-3" target="O2EtwMMW7DlvZkUXe5M9-7" edge="1">
          <mxGeometry relative="1" as="geometry">
            <mxPoint x="330" y="230" as="sourcePoint" />
            <mxPoint x="446.3599999999999" y="286.1600000000001" as="targetPoint" />
          </mxGeometry>
        </mxCell>
        <mxCell id="O2EtwMMW7DlvZkUXe5M9-2" value="нет" style="edgeLabel;html=1;align=center;verticalAlign=middle;resizable=0;points=[];" parent="O2EtwMMW7DlvZkUXe5M9-1" vertex="1" connectable="0">
          <mxGeometry x="0.1706" y="2" relative="1" as="geometry">
            <mxPoint as="offset" />
          </mxGeometry>
        </mxCell>
        <mxCell id="O2EtwMMW7DlvZkUXe5M9-5" value="len(num1) = 1 и&amp;nbsp;&amp;nbsp;&lt;div&gt;len(num2) = 1 ?&lt;/div&gt;" style="rhombus;whiteSpace=wrap;html=1;" parent="-JtKE8k-AaRXHGvMn-dL-3" vertex="1">
          <mxGeometry x="227.5" y="80" width="205" height="100" as="geometry" />
        </mxCell>
        <mxCell id="O2EtwMMW7DlvZkUXe5M9-11" style="edgeStyle=orthogonalEdgeStyle;rounded=0;orthogonalLoop=1;jettySize=auto;html=1;exitX=0.5;exitY=1;exitDx=0;exitDy=0;entryX=0.5;entryY=0;entryDx=0;entryDy=0;" parent="-JtKE8k-AaRXHGvMn-dL-3" source="O2EtwMMW7DlvZkUXe5M9-7" target="O2EtwMMW7DlvZkUXe5M9-10" edge="1">
          <mxGeometry relative="1" as="geometry" />
        </mxCell>
        <mxCell id="O2EtwMMW7DlvZkUXe5M9-12" value="нет" style="edgeLabel;html=1;align=center;verticalAlign=middle;resizable=0;points=[];" parent="O2EtwMMW7DlvZkUXe5M9-11" vertex="1" connectable="0">
          <mxGeometry x="0.0612" y="1" relative="1" as="geometry">
            <mxPoint as="offset" />
          </mxGeometry>
        </mxCell>
        <mxCell id="O2EtwMMW7DlvZkUXe5M9-7" value="len(num1) =&lt;div&gt;&amp;nbsp;len(num2)?&lt;/div&gt;" style="rhombus;whiteSpace=wrap;html=1;" parent="-JtKE8k-AaRXHGvMn-dL-3" vertex="1">
          <mxGeometry x="380" y="250" width="140" height="80" as="geometry" />
        </mxCell>
        <mxCell id="O2EtwMMW7DlvZkUXe5M9-15" style="edgeStyle=orthogonalEdgeStyle;rounded=0;orthogonalLoop=1;jettySize=auto;html=1;exitX=0.5;exitY=1;exitDx=0;exitDy=0;entryX=0.5;entryY=0;entryDx=0;entryDy=0;" parent="-JtKE8k-AaRXHGvMn-dL-3" source="O2EtwMMW7DlvZkUXe5M9-10" target="O2EtwMMW7DlvZkUXe5M9-14" edge="1">
          <mxGeometry relative="1" as="geometry" />
        </mxCell>
        <mxCell id="O2EtwMMW7DlvZkUXe5M9-24" value="да" style="edgeLabel;html=1;align=center;verticalAlign=middle;resizable=0;points=[];" parent="O2EtwMMW7DlvZkUXe5M9-15" vertex="1" connectable="0">
          <mxGeometry x="-0.0627" y="-2" relative="1" as="geometry">
            <mxPoint as="offset" />
          </mxGeometry>
        </mxCell>
        <mxCell id="O2EtwMMW7DlvZkUXe5M9-35" style="edgeStyle=orthogonalEdgeStyle;rounded=0;orthogonalLoop=1;jettySize=auto;html=1;exitX=0.5;exitY=1;exitDx=0;exitDy=0;entryX=0.5;entryY=0;entryDx=0;entryDy=0;" parent="-JtKE8k-AaRXHGvMn-dL-3" source="O2EtwMMW7DlvZkUXe5M9-10" target="O2EtwMMW7DlvZkUXe5M9-30" edge="1">
          <mxGeometry relative="1" as="geometry" />
        </mxCell>
        <mxCell id="O2EtwMMW7DlvZkUXe5M9-36" value="нет" style="edgeLabel;html=1;align=center;verticalAlign=middle;resizable=0;points=[];" parent="O2EtwMMW7DlvZkUXe5M9-35" vertex="1" connectable="0">
          <mxGeometry x="0.1627" y="-1" relative="1" as="geometry">
            <mxPoint as="offset" />
          </mxGeometry>
        </mxCell>
        <mxCell id="O2EtwMMW7DlvZkUXe5M9-10" value="len1 &amp;gt; len2?" style="rhombus;whiteSpace=wrap;html=1;" parent="-JtKE8k-AaRXHGvMn-dL-3" vertex="1">
          <mxGeometry x="830" y="390" width="150" height="80" as="geometry" />
        </mxCell>
        <mxCell id="O2EtwMMW7DlvZkUXe5M9-17" style="edgeStyle=orthogonalEdgeStyle;rounded=0;orthogonalLoop=1;jettySize=auto;html=1;exitX=0.5;exitY=1;exitDx=0;exitDy=0;entryX=0.5;entryY=0;entryDx=0;entryDy=0;" parent="-JtKE8k-AaRXHGvMn-dL-3" source="O2EtwMMW7DlvZkUXe5M9-14" target="O2EtwMMW7DlvZkUXe5M9-16" edge="1">
          <mxGeometry relative="1" as="geometry" />
        </mxCell>
        <mxCell id="O2EtwMMW7DlvZkUXe5M9-18" value="да&lt;div&gt;&lt;br&gt;&lt;/div&gt;" style="edgeLabel;html=1;align=center;verticalAlign=middle;resizable=0;points=[];" parent="O2EtwMMW7DlvZkUXe5M9-17" vertex="1" connectable="0">
          <mxGeometry x="-0.187" y="-1" relative="1" as="geometry">
            <mxPoint as="offset" />
          </mxGeometry>
        </mxCell>
        <mxCell id="O2EtwMMW7DlvZkUXe5M9-14" value="len1 % 2 == 0" style="rhombus;whiteSpace=wrap;html=1;" parent="-JtKE8k-AaRXHGvMn-dL-3" vertex="1">
          <mxGeometry x="590" y="601" width="200" height="80" as="geometry" />
        </mxCell>
        <mxCell id="T8CD1AzCU58Y4URFZ3Q1-12" style="edgeStyle=orthogonalEdgeStyle;rounded=0;orthogonalLoop=1;jettySize=auto;html=1;exitX=0.5;exitY=1;exitDx=0;exitDy=0;entryX=0.5;entryY=0;entryDx=0;entryDy=0;" edge="1" parent="-JtKE8k-AaRXHGvMn-dL-3" source="O2EtwMMW7DlvZkUXe5M9-16" target="T8CD1AzCU58Y4URFZ3Q1-4">
          <mxGeometry relative="1" as="geometry" />
        </mxCell>
        <mxCell id="O2EtwMMW7DlvZkUXe5M9-16" value="Разбиваем num1 и num2 на a, b, c, d, x:&lt;br&gt;split(num1, A, B, X, - 1);&lt;div&gt;split(num2, C, D, X,&lt;span style=&quot;background-color: initial;&quot;&gt;&amp;nbsp;&lt;/span&gt;&lt;span style=&quot;background-color: initial;&quot;&gt;len1 / 2&lt;/span&gt;&lt;span style=&quot;background-color: initial;&quot;&gt;);&lt;/span&gt;&lt;/div&gt;&lt;div&gt;&lt;div&gt;&lt;br&gt;&lt;/div&gt;&lt;/div&gt;" style="rounded=0;whiteSpace=wrap;html=1;" parent="-JtKE8k-AaRXHGvMn-dL-3" vertex="1">
          <mxGeometry x="500" y="718.5" width="160" height="111" as="geometry" />
        </mxCell>
        <mxCell id="T8CD1AzCU58Y4URFZ3Q1-13" style="edgeStyle=orthogonalEdgeStyle;rounded=0;orthogonalLoop=1;jettySize=auto;html=1;exitX=0.5;exitY=1;exitDx=0;exitDy=0;entryX=0.5;entryY=0;entryDx=0;entryDy=0;" edge="1" parent="-JtKE8k-AaRXHGvMn-dL-3" source="O2EtwMMW7DlvZkUXe5M9-21" target="T8CD1AzCU58Y4URFZ3Q1-6">
          <mxGeometry relative="1" as="geometry" />
        </mxCell>
        <mxCell id="O2EtwMMW7DlvZkUXe5M9-21" value="Разбиваем num1 и num2 на a, b, c, d, x:&lt;br&gt;split(num1, A, B, X, -1);&lt;div&gt;split(num2, C, D, X (len1/2) + 1);&lt;br&gt;&lt;div&gt;&lt;br&gt;&lt;/div&gt;&lt;/div&gt;" style="whiteSpace=wrap;html=1;" parent="-JtKE8k-AaRXHGvMn-dL-3" vertex="1">
          <mxGeometry x="740" y="729" width="150" height="90" as="geometry" />
        </mxCell>
        <mxCell id="O2EtwMMW7DlvZkUXe5M9-19" style="edgeStyle=orthogonalEdgeStyle;rounded=0;orthogonalLoop=1;jettySize=auto;html=1;exitX=0.5;exitY=1;exitDx=0;exitDy=0;entryX=0.5;entryY=0;entryDx=0;entryDy=0;" parent="-JtKE8k-AaRXHGvMn-dL-3" source="O2EtwMMW7DlvZkUXe5M9-14" target="O2EtwMMW7DlvZkUXe5M9-21" edge="1">
          <mxGeometry relative="1" as="geometry">
            <mxPoint x="820" y="729.5" as="targetPoint" />
          </mxGeometry>
        </mxCell>
        <mxCell id="O2EtwMMW7DlvZkUXe5M9-22" value="нет" style="edgeLabel;html=1;align=center;verticalAlign=middle;resizable=0;points=[];" parent="O2EtwMMW7DlvZkUXe5M9-19" vertex="1" connectable="0">
          <mxGeometry x="-0.0578" y="1" relative="1" as="geometry">
            <mxPoint as="offset" />
          </mxGeometry>
        </mxCell>
        <mxCell id="O2EtwMMW7DlvZkUXe5M9-28" style="edgeStyle=orthogonalEdgeStyle;rounded=0;orthogonalLoop=1;jettySize=auto;html=1;exitX=0.5;exitY=1;exitDx=0;exitDy=0;entryX=0.5;entryY=0;entryDx=0;entryDy=0;" parent="-JtKE8k-AaRXHGvMn-dL-3" source="O2EtwMMW7DlvZkUXe5M9-30" target="O2EtwMMW7DlvZkUXe5M9-31" edge="1">
          <mxGeometry relative="1" as="geometry" />
        </mxCell>
        <mxCell id="O2EtwMMW7DlvZkUXe5M9-29" value="да&lt;div&gt;&lt;br&gt;&lt;/div&gt;" style="edgeLabel;html=1;align=center;verticalAlign=middle;resizable=0;points=[];" parent="O2EtwMMW7DlvZkUXe5M9-28" vertex="1" connectable="0">
          <mxGeometry x="-0.187" y="-1" relative="1" as="geometry">
            <mxPoint as="offset" />
          </mxGeometry>
        </mxCell>
        <mxCell id="O2EtwMMW7DlvZkUXe5M9-30" value="len2 % 2 == 0" style="rhombus;whiteSpace=wrap;html=1;" parent="-JtKE8k-AaRXHGvMn-dL-3" vertex="1">
          <mxGeometry x="1050" y="591.5" width="200" height="80" as="geometry" />
        </mxCell>
        <mxCell id="T8CD1AzCU58Y4URFZ3Q1-14" style="edgeStyle=orthogonalEdgeStyle;rounded=0;orthogonalLoop=1;jettySize=auto;html=1;exitX=0.5;exitY=1;exitDx=0;exitDy=0;entryX=0.5;entryY=0;entryDx=0;entryDy=0;" edge="1" parent="-JtKE8k-AaRXHGvMn-dL-3" source="O2EtwMMW7DlvZkUXe5M9-31" target="T8CD1AzCU58Y4URFZ3Q1-8">
          <mxGeometry relative="1" as="geometry" />
        </mxCell>
        <mxCell id="O2EtwMMW7DlvZkUXe5M9-31" value="Разбиваем num1 и num2 на a, b, c, d, x:&lt;br&gt;split(num1, A, B, X, len1 / 2);&lt;div&gt;split(num2, C, D, X, - 1);&lt;br&gt;&lt;div&gt;&lt;br&gt;&lt;/div&gt;&lt;/div&gt;" style="rounded=0;whiteSpace=wrap;html=1;" parent="-JtKE8k-AaRXHGvMn-dL-3" vertex="1">
          <mxGeometry x="960" y="709" width="160" height="111" as="geometry" />
        </mxCell>
        <mxCell id="T8CD1AzCU58Y4URFZ3Q1-15" style="edgeStyle=orthogonalEdgeStyle;rounded=0;orthogonalLoop=1;jettySize=auto;html=1;exitX=0.5;exitY=1;exitDx=0;exitDy=0;entryX=0.5;entryY=0;entryDx=0;entryDy=0;" edge="1" parent="-JtKE8k-AaRXHGvMn-dL-3" source="O2EtwMMW7DlvZkUXe5M9-32" target="T8CD1AzCU58Y4URFZ3Q1-10">
          <mxGeometry relative="1" as="geometry" />
        </mxCell>
        <mxCell id="O2EtwMMW7DlvZkUXe5M9-32" value="Разбиваем num1 и num2 на a, b, c, d, x:&lt;br&gt;split(num1, A, B, X, (len1 / 2) + 1);&lt;div&gt;split(num2, C, D, X, - 1);&lt;br&gt;&lt;div&gt;&lt;br&gt;&lt;/div&gt;&lt;/div&gt;" style="whiteSpace=wrap;html=1;" parent="-JtKE8k-AaRXHGvMn-dL-3" vertex="1">
          <mxGeometry x="1200" y="719.5" width="150" height="90" as="geometry" />
        </mxCell>
        <mxCell id="O2EtwMMW7DlvZkUXe5M9-33" style="edgeStyle=orthogonalEdgeStyle;rounded=0;orthogonalLoop=1;jettySize=auto;html=1;exitX=0.5;exitY=1;exitDx=0;exitDy=0;entryX=0.5;entryY=0;entryDx=0;entryDy=0;" parent="-JtKE8k-AaRXHGvMn-dL-3" source="O2EtwMMW7DlvZkUXe5M9-30" target="O2EtwMMW7DlvZkUXe5M9-32" edge="1">
          <mxGeometry relative="1" as="geometry">
            <mxPoint x="1280" y="720" as="targetPoint" />
          </mxGeometry>
        </mxCell>
        <mxCell id="O2EtwMMW7DlvZkUXe5M9-34" value="нет" style="edgeLabel;html=1;align=center;verticalAlign=middle;resizable=0;points=[];" parent="O2EtwMMW7DlvZkUXe5M9-33" vertex="1" connectable="0">
          <mxGeometry x="-0.0578" y="1" relative="1" as="geometry">
            <mxPoint as="offset" />
          </mxGeometry>
        </mxCell>
        <mxCell id="T8CD1AzCU58Y4URFZ3Q1-16" style="edgeStyle=orthogonalEdgeStyle;rounded=0;orthogonalLoop=1;jettySize=auto;html=1;exitX=0.5;exitY=1;exitDx=0;exitDy=0;entryX=0.5;entryY=0;entryDx=0;entryDy=0;" edge="1" parent="-JtKE8k-AaRXHGvMn-dL-3" source="T8CD1AzCU58Y4URFZ3Q1-4" target="T8CD1AzCU58Y4URFZ3Q1-5">
          <mxGeometry relative="1" as="geometry" />
        </mxCell>
        <mxCell id="T8CD1AzCU58Y4URFZ3Q1-4" value="AC = mult(a,c)&lt;div&gt;BD = mult(b, d)&lt;/div&gt;&lt;div&gt;ABCD = mult(plus(a,b),plus(c,d))&lt;/div&gt;" style="whiteSpace=wrap;html=1;" vertex="1" parent="-JtKE8k-AaRXHGvMn-dL-3">
          <mxGeometry x="500" y="870" width="170" height="80" as="geometry" />
        </mxCell>
        <mxCell id="T8CD1AzCU58Y4URFZ3Q1-5" value="return AC*x^2 + (ABCD-AC-BD)*x + BD" style="whiteSpace=wrap;html=1;" vertex="1" parent="-JtKE8k-AaRXHGvMn-dL-3">
          <mxGeometry x="525" y="986" width="120" height="60" as="geometry" />
        </mxCell>
        <mxCell id="T8CD1AzCU58Y4URFZ3Q1-17" style="edgeStyle=orthogonalEdgeStyle;rounded=0;orthogonalLoop=1;jettySize=auto;html=1;exitX=0.5;exitY=1;exitDx=0;exitDy=0;entryX=0.5;entryY=0;entryDx=0;entryDy=0;" edge="1" parent="-JtKE8k-AaRXHGvMn-dL-3" source="T8CD1AzCU58Y4URFZ3Q1-6" target="T8CD1AzCU58Y4URFZ3Q1-7">
          <mxGeometry relative="1" as="geometry" />
        </mxCell>
        <mxCell id="T8CD1AzCU58Y4URFZ3Q1-6" value="AC = mult(a,c)&lt;div&gt;BD = mult(b, d)&lt;/div&gt;&lt;div&gt;ABCD = mult(plus(a,b),plus(c,d))&lt;/div&gt;" style="whiteSpace=wrap;html=1;" vertex="1" parent="-JtKE8k-AaRXHGvMn-dL-3">
          <mxGeometry x="740" y="870" width="170" height="80" as="geometry" />
        </mxCell>
        <mxCell id="T8CD1AzCU58Y4URFZ3Q1-7" value="return AC*x^2 + (ABCD-AC-BD)*x + BD" style="whiteSpace=wrap;html=1;" vertex="1" parent="-JtKE8k-AaRXHGvMn-dL-3">
          <mxGeometry x="765" y="986" width="120" height="60" as="geometry" />
        </mxCell>
        <mxCell id="T8CD1AzCU58Y4URFZ3Q1-18" style="edgeStyle=orthogonalEdgeStyle;rounded=0;orthogonalLoop=1;jettySize=auto;html=1;exitX=0.5;exitY=1;exitDx=0;exitDy=0;entryX=0.5;entryY=0;entryDx=0;entryDy=0;" edge="1" parent="-JtKE8k-AaRXHGvMn-dL-3" source="T8CD1AzCU58Y4URFZ3Q1-8" target="T8CD1AzCU58Y4URFZ3Q1-9">
          <mxGeometry relative="1" as="geometry" />
        </mxCell>
        <mxCell id="T8CD1AzCU58Y4URFZ3Q1-8" value="AC = mult(a,c)&lt;div&gt;BD = mult(b, d)&lt;/div&gt;&lt;div&gt;ABCD = mult(plus(a,b),plus(c,d))&lt;/div&gt;" style="whiteSpace=wrap;html=1;" vertex="1" parent="-JtKE8k-AaRXHGvMn-dL-3">
          <mxGeometry x="960" y="880" width="170" height="80" as="geometry" />
        </mxCell>
        <mxCell id="T8CD1AzCU58Y4URFZ3Q1-9" value="return AC*x^2 + (ABCD-AC-BD)*x + BD" style="whiteSpace=wrap;html=1;" vertex="1" parent="-JtKE8k-AaRXHGvMn-dL-3">
          <mxGeometry x="985" y="996" width="120" height="60" as="geometry" />
        </mxCell>
        <mxCell id="T8CD1AzCU58Y4URFZ3Q1-19" style="edgeStyle=orthogonalEdgeStyle;rounded=0;orthogonalLoop=1;jettySize=auto;html=1;exitX=0.5;exitY=1;exitDx=0;exitDy=0;entryX=0.5;entryY=0;entryDx=0;entryDy=0;" edge="1" parent="-JtKE8k-AaRXHGvMn-dL-3" source="T8CD1AzCU58Y4URFZ3Q1-10" target="T8CD1AzCU58Y4URFZ3Q1-11">
          <mxGeometry relative="1" as="geometry" />
        </mxCell>
        <mxCell id="T8CD1AzCU58Y4URFZ3Q1-10" value="AC = mult(a,c)&lt;div&gt;BD = mult(b, d)&lt;/div&gt;&lt;div&gt;ABCD = mult(plus(a,b),plus(c,d))&lt;/div&gt;" style="whiteSpace=wrap;html=1;" vertex="1" parent="-JtKE8k-AaRXHGvMn-dL-3">
          <mxGeometry x="1200" y="880" width="170" height="80" as="geometry" />
        </mxCell>
        <mxCell id="T8CD1AzCU58Y4URFZ3Q1-11" value="return AC*x^2 + (ABCD-AC-BD)*x + BD" style="whiteSpace=wrap;html=1;" vertex="1" parent="-JtKE8k-AaRXHGvMn-dL-3">
          <mxGeometry x="1225" y="996" width="120" height="60" as="geometry" />
        </mxCell>
        <mxCell id="O2EtwMMW7DlvZkUXe5M9-42" value="pass" style="whiteSpace=wrap;html=1;" parent="WIyWlLk6GJQsqaUBKTNV-1" vertex="1">
          <mxGeometry x="800" y="960" width="120" height="60" as="geometry" />
        </mxCell>
        <mxCell id="O2EtwMMW7DlvZkUXe5M9-40" style="edgeStyle=orthogonalEdgeStyle;rounded=0;orthogonalLoop=1;jettySize=auto;html=1;exitX=0.5;exitY=1;exitDx=0;exitDy=0;entryX=0.5;entryY=0;entryDx=0;entryDy=0;" parent="WIyWlLk6GJQsqaUBKTNV-1" source="O2EtwMMW7DlvZkUXe5M9-37" target="O2EtwMMW7DlvZkUXe5M9-42" edge="1">
          <mxGeometry relative="1" as="geometry">
            <mxPoint x="860" y="950" as="targetPoint" />
            <Array as="points">
              <mxPoint x="1050" y="940" />
              <mxPoint x="920" y="940" />
              <mxPoint x="920" y="930" />
              <mxPoint x="860" y="930" />
            </Array>
          </mxGeometry>
        </mxCell>
        <mxCell id="O2EtwMMW7DlvZkUXe5M9-41" value="да" style="edgeLabel;html=1;align=center;verticalAlign=middle;resizable=0;points=[];" parent="O2EtwMMW7DlvZkUXe5M9-40" vertex="1" connectable="0">
          <mxGeometry x="0.0659" y="-1" relative="1" as="geometry">
            <mxPoint as="offset" />
          </mxGeometry>
        </mxCell>
      </root>
    </mxGraphModel>
  </diagram>
</mxfile>
